<svg width="16" height="16" viewBox="0 0 16 16" fill="none" xmlns="http://www.w3.org/2000/svg">
<path d="M10.794 1.33334C12.8533 1.33334 14 2.52001 14 4.55334V11.44C14 13.5067 12.8533 14.6667 10.794 14.6667H5.20667C3.18 14.6667 2 13.5067 2 11.44V4.55334C2 2.52001 3.18 1.33334 5.20667 1.33334H10.794ZM5.38667 10.4933C5.18667 10.4733 4.99333 10.5667 4.88667 10.74C4.78 10.9067 4.78 11.1267 4.88667 11.3C4.99333 11.4667 5.18667 11.5667 5.38667 11.54H10.6133C10.8793 11.5133 11.08 11.286 11.08 11.02C11.08 10.7467 10.8793 10.52 10.6133 10.4933H5.38667ZM10.6133 7.45268H5.38667C5.09933 7.45268 4.86667 7.68668 4.86667 7.97334C4.86667 8.26001 5.09933 8.49334 5.38667 8.49334H10.6133C10.9 8.49334 11.1333 8.26001 11.1333 7.97334C11.1333 7.68668 10.9 7.45268 10.6133 7.45268ZM7.37933 4.43334H5.38667V4.44001C5.09933 4.44001 4.86667 4.67334 4.86667 4.96001C4.86667 5.24668 5.09933 5.48001 5.38667 5.48001H7.37933C7.66667 5.48001 7.9 5.24668 7.9 4.95268C7.9 4.66668 7.66667 4.43334 7.37933 4.43334Z" fill="#9FA8C7"/>
</svg>
