<svg width="16" height="16" viewBox="0 0 16 16" fill="none" xmlns="http://www.w3.org/2000/svg">
<path d="M5.27997 8.97978C6.21997 8.97978 6.97331 9.74045 6.97331 10.6871V12.9598C6.97331 13.8998 6.21997 14.6664 5.27997 14.6664H3.02664C2.09331 14.6664 1.33331 13.8998 1.33331 12.9598V10.6871C1.33331 9.74045 2.09331 8.97978 3.02664 8.97978H5.27997ZM12.9734 8.97978C13.9067 8.97978 14.6667 9.74045 14.6667 10.6871V12.9598C14.6667 13.8998 13.9067 14.6664 12.9734 14.6664H10.72C9.78004 14.6664 9.02671 13.8998 9.02671 12.9598V10.6871C9.02671 9.74045 9.78004 8.97978 10.72 8.97978H12.9734ZM12.9734 1.33331C13.9067 1.33331 14.6667 2.09998 14.6667 3.04065V5.31331C14.6667 6.25998 13.9067 7.01998 12.9734 7.01998H10.72C9.78004 7.01998 9.02671 6.25998 9.02671 5.31331V3.04065C9.02671 2.09998 9.78004 1.33331 10.72 1.33331H12.9734Z" fill="white"/>
<path d="M6.97333 3.04067C6.97333 2.1 6.22 1.33334 5.28 1.33334H3.02667C2.09333 1.33334 1.33333 2.1 1.33333 3.04067V5.31334C1.33333 6.26 2.09333 7.02 3.02667 7.02H5.28C6.22 7.02 6.97333 6.26 6.97333 5.31334V3.04067Z" fill="white"/>
</svg>
