<svg width="16" height="16" viewBox="0 0 16 16" fill="none" xmlns="http://www.w3.org/2000/svg">
<path d="M11.0104 2C13.3096 2 14.6667 3.32306 14.6667 5.58787H11.8459V5.61098C10.5368 5.61098 9.47555 6.64566 9.47555 7.922C9.47555 9.19835 10.5368 10.233 11.8459 10.233H14.6667V10.441C14.6667 12.6769 13.3096 14 11.0104 14H4.98963C2.69037 14 1.33333 12.6769 1.33333 10.441V5.55898C1.33333 3.32306 2.69037 2 4.98963 2H11.0104ZM14.1689 6.58161C14.4438 6.58161 14.6667 6.79889 14.6667 7.06692V8.75397C14.6635 9.0207 14.4425 9.23617 14.1689 9.23929H11.8993C11.2365 9.24798 10.657 8.80558 10.5067 8.17622C10.4314 7.78553 10.5371 7.38238 10.7954 7.07481C11.0537 6.76725 11.4382 6.58672 11.8459 6.58161H14.1689ZM12.1659 7.36158H11.9467C11.8121 7.36004 11.6824 7.41109 11.5867 7.50336C11.4909 7.59562 11.437 7.72142 11.437 7.85267C11.437 8.12804 11.6642 8.35216 11.9467 8.35532H12.1659C12.4474 8.35532 12.6756 8.13286 12.6756 7.85845C12.6756 7.58404 12.4474 7.36158 12.1659 7.36158ZM8.25481 4.59413H4.49185C4.21269 4.59411 3.98547 4.81306 3.98222 5.08522C3.98222 5.36058 4.20943 5.5847 4.49185 5.58787H8.25481C8.53627 5.58787 8.76444 5.36541 8.76444 5.091C8.76444 4.81658 8.53627 4.59413 8.25481 4.59413Z" fill="#9FA8C7"/>
</svg>
