<svg width="16" height="16" viewBox="0 0 16 16" fill="none" xmlns="http://www.w3.org/2000/svg">
<path d="M8.47809 1.33353C8.98225 1.33353 9.43873 1.61353 9.69081 2.02686C9.81345 2.22686 9.8952 2.47353 9.87476 2.73353C9.86114 2.93353 9.92245 3.13353 10.0315 3.32019C10.3789 3.88686 11.1488 4.10019 11.7484 3.78019C12.4228 3.39353 13.2745 3.62686 13.6628 4.28686L14.1193 5.07353C14.5144 5.73353 14.2964 6.58019 13.6151 6.96019C13.036 7.30019 12.8316 8.05353 13.1791 8.62686C13.2881 8.80686 13.4107 8.96019 13.6015 9.05353C13.84 9.18019 14.0239 9.38019 14.1534 9.58019C14.4054 9.99353 14.385 10.5002 14.1397 10.9469L13.6628 11.7469C13.4107 12.1735 12.9406 12.4402 12.4569 12.4402C12.2185 12.4402 11.9527 12.3735 11.7347 12.2402C11.5576 12.1269 11.3532 12.0869 11.1352 12.0869C10.4607 12.0869 9.8952 12.6402 9.87476 13.3002C9.87476 14.0669 9.24796 14.6669 8.46446 14.6669H7.53789C6.74757 14.6669 6.12077 14.0669 6.12077 13.3002C6.10715 12.6402 5.54166 12.0869 4.86717 12.0869C4.64234 12.0869 4.43795 12.1269 4.26762 12.2402C4.04961 12.3735 3.77708 12.4402 3.54544 12.4402C3.0549 12.4402 2.5848 12.1735 2.33272 11.7469L1.86262 10.9469C1.61053 10.5135 1.59691 9.99353 1.84899 9.58019C1.958 9.38019 2.16239 9.18019 2.39403 9.05353C2.5848 8.96019 2.70743 8.80686 2.82326 8.62686C3.16391 8.05353 2.95952 7.30019 2.38041 6.96019C1.70592 6.58019 1.4879 5.73353 1.87624 5.07353L2.33272 4.28686C2.72787 3.62686 3.57269 3.39353 4.254 3.78019C4.84673 4.10019 5.61661 3.88686 5.96407 3.32019C6.07308 3.13353 6.1344 2.93353 6.12077 2.73353C6.10715 2.47353 6.18209 2.22686 6.31154 2.02686C6.56362 1.61353 7.02009 1.34686 7.51745 1.33353H8.47809ZM8.00799 6.12019C6.93834 6.12019 6.07308 6.96019 6.07308 8.00686C6.07308 9.05353 6.93834 9.88686 8.00799 9.88686C9.07764 9.88686 9.92245 9.05353 9.92245 8.00686C9.92245 6.96019 9.07764 6.12019 8.00799 6.12019Z" fill="#9FA8C7"/>
</svg>
