<svg width="16" height="16" viewBox="0 0 16 16" fill="none" xmlns="http://www.w3.org/2000/svg">
<path d="M8.00006 1.33292C11.6867 1.33292 14.6667 4.32025 14.6667 7.99958C14.6667 11.6803 11.6867 14.6663 8.00006 14.6663C4.32006 14.6663 1.33339 11.6803 1.33339 7.99958C1.33339 4.32025 4.32006 1.33292 8.00006 1.33292ZM8.00006 9.95358C7.68006 9.95358 7.42006 10.2136 7.42006 10.5336C7.42006 10.8536 7.68006 11.1202 8.00672 11.1202C8.32672 11.1202 8.58672 10.8536 8.58672 10.5336C8.58672 10.2136 8.32672 9.95358 8.00006 9.95358ZM8.00006 4.88625C7.68006 4.88625 7.41339 5.15358 7.41339 5.47292V8.41958C7.41339 8.74025 7.68006 8.99958 8.00006 8.99958C8.32006 8.99958 8.58006 8.74025 8.58006 8.41958V5.47292C8.58006 5.15358 8.32006 4.88625 8.00006 4.88625Z" fill="#9FA8C7"/>
</svg>
