<svg width="16" height="16" viewBox="0 0 16 16" fill="none" xmlns="http://www.w3.org/2000/svg">
<path d="M11.1129 1.33348C13.3803 1.33348 14.6603 2.61948 14.6669 4.88681V11.1135C14.6669 13.3801 13.3803 14.6668 11.1129 14.6668H4.88694C2.6196 14.6668 1.3336 13.3801 1.3336 11.1135V4.88681C1.3336 2.61948 2.6196 1.33348 4.88694 1.33348H11.1129ZM8.3336 4.08681C8.14627 3.97348 7.9196 3.97348 7.74027 4.08681C7.5596 4.19948 7.46027 4.40681 7.4796 4.61348V11.4068C7.5136 11.6935 7.75294 11.9068 8.03294 11.9068C8.32027 11.9068 8.5596 11.6935 8.58627 11.4068V4.61348C8.61294 4.40681 8.5136 4.19948 8.3336 4.08681ZM5.22027 6.27348C5.04027 6.16015 4.81294 6.16015 4.6336 6.27348C4.45294 6.38681 4.3536 6.59281 4.3736 6.80015V11.4068C4.3996 11.6935 4.6396 11.9068 4.92627 11.9068C5.2136 11.9068 5.45294 11.6935 5.4796 11.4068V6.80015C5.50027 6.59281 5.3996 6.38681 5.22027 6.27348ZM11.3929 8.69348C11.2136 8.58015 10.9869 8.58015 10.8003 8.69348C10.6196 8.80681 10.5203 9.00615 10.5469 9.22015V11.4068C10.5736 11.6935 10.8129 11.9068 11.1003 11.9068C11.3803 11.9068 11.6196 11.6935 11.6536 11.4068V9.22015C11.6729 9.00615 11.5736 8.80681 11.3929 8.69348Z" fill="#9FA8C7"/>
</svg>
