<svg width="16" height="16" viewBox="0 0 16 16" fill="none" xmlns="http://www.w3.org/2000/svg">
<path d="M8 1.3335C11.6867 1.3335 14.6667 4.32016 14.6667 8.00016C14.6667 11.6868 11.6867 14.6668 8 14.6668C4.31999 14.6668 1.33333 11.6868 1.33333 8.00016C1.33333 4.32016 4.31999 1.3335 8 1.3335ZM7.76666 4.62016C7.49333 4.62016 7.26666 4.84016 7.26666 5.12016V8.48683C7.26666 8.66016 7.36 8.82016 7.51333 8.9135L10.1267 10.4735C10.2067 10.5202 10.2933 10.5468 10.3867 10.5468C10.5533 10.5468 10.72 10.4602 10.8133 10.3002C10.9533 10.0668 10.88 9.76016 10.64 9.6135L8.26666 8.20016V5.12016C8.26666 4.84016 8.03999 4.62016 7.76666 4.62016Z" fill="#9FA8C7"/>
</svg>
