<svg width="16" height="16" viewBox="0 0 16 16" fill="none" xmlns="http://www.w3.org/2000/svg">
<path d="M7.66182 1.33331C9.31686 1.33331 10.6667 2.65998 10.6667 4.29331V7.48665H6.5969C6.30523 7.48665 6.07461 7.71331 6.07461 7.99998C6.07461 8.27998 6.30523 8.51331 6.5969 8.51331H10.6667V11.7C10.6667 13.3333 9.31686 14.6666 7.64825 14.6666H4.34496C2.68314 14.6666 1.33333 13.34 1.33333 11.7066V4.29998C1.33333 2.65998 2.68992 1.33331 4.35174 1.33331H7.66182ZM12.3601 5.70011C12.5601 5.49345 12.8868 5.49345 13.0868 5.69345L15.0335 7.63345C15.1335 7.73345 15.1868 7.86011 15.1868 8.00011C15.1868 8.13345 15.1335 8.26678 15.0335 8.36011L13.0868 10.3001C12.9868 10.4001 12.8535 10.4534 12.7268 10.4534C12.5935 10.4534 12.4601 10.4001 12.3601 10.3001C12.1601 10.1001 12.1601 9.77345 12.3601 9.57345L13.4268 8.51345H10.6668V7.48678H13.4268L12.3601 6.42678C12.1601 6.22678 12.1601 5.90011 12.3601 5.70011Z" fill="#9FA8C7"/>
</svg>
